<?xml version="1.0" standalone="no"?>
<!DOCTYPE svg PUBLIC "-//W3C//DTD SVG 20010904//EN"
 "http://www.w3.org/TR/2001/REC-SVG-20010904/DTD/svg10.dtd">
<svg version="1.0" xmlns="http://www.w3.org/2000/svg"
 width="805.000000pt" height="598.000000pt" viewBox="0 0 805.000000 598.000000"
 preserveAspectRatio="xMidYMid meet">

<g transform="translate(0.000000,598.000000) scale(0.100000,-0.100000)"
fill="#000000" stroke="none">
<path d="M0 2990 l0 -2990 4025 0 4025 0 0 2990 0 2990 -4025 0 -4025 0 0
-2990z m2217 512 c288 -100 460 -384 409 -678 -41 -242 -217 -430 -456 -490
-101 -25 -264 -16 -355 21 -157 63 -269 165 -335 307 -112 240 -60 523 130
702 77 72 146 111 250 143 98 30 261 28 357 -5z m994 -298 c44 -22 59 -68 59
-174 0 -135 -24 -179 -103 -189 l-42 -6 -3 -102 -3 -103 -39 0 -40 0 0 288 c0
159 3 292 7 295 13 14 134 7 164 -9z m258 5 c44 -15 61 -54 61 -139 0 -75 -15
-118 -50 -143 -20 -14 -20 -15 15 -50 l35 -35 0 -106 0 -106 -35 0 -35 0 0 98
c0 109 -13 142 -56 142 l-24 0 0 -120 0 -120 -35 0 -35 0 0 295 0 295 64 0
c34 0 77 -5 95 -11z m292 -20 l29 -31 0 -233 0 -233 -26 -31 c-33 -40 -80 -49
-129 -25 -62 29 -67 53 -63 306 l3 220 33 29 c26 23 42 29 78 29 39 0 51 -5
75 -31z m297 -233 l-3 -265 -28 -29 c-36 -38 -86 -48 -126 -27 -50 25 -61 51
-61 142 l0 83 35 0 35 0 0 -69 c0 -79 17 -109 51 -91 18 10 19 24 19 230 l0
220 -35 0 c-33 0 -35 2 -35 35 l0 35 75 0 76 0 -3 -264z m222 230 l0 -35 -52
-3 -53 -3 0 -90 0 -90 43 -3 c41 -3 42 -4 42 -37 0 -33 -1 -34 -42 -37 l-43
-3 -3 -70 c-5 -108 -1 -115 58 -115 l50 0 0 -35 0 -35 -74 0 c-54 0 -79 4 -90
16 -14 13 -16 54 -16 295 l0 279 90 0 90 0 0 -34z m216 16 c34 -27 44 -56 44
-121 l0 -61 -35 0 -35 0 0 53 c0 56 -12 77 -42 77 -31 0 -38 -44 -38 -233 0
-148 3 -187 15 -204 10 -15 21 -20 33 -16 26 10 32 24 32 81 l0 52 35 0 35 0
0 -66 c0 -80 -22 -118 -79 -135 -32 -9 -44 -8 -74 6 -63 30 -69 55 -65 306 l3
221 33 29 c38 34 103 40 138 11z m294 -17 c0 -32 -2 -35 -30 -35 l-30 0 -2
-202 -3 -203 -37 -3 -38 -3 0 205 0 206 -35 0 c-33 0 -35 2 -35 35 l0 35 105
0 105 0 0 -35z m244 -131 c41 -180 59 -240 51 -164 -2 25 -8 109 -11 188 l-7
142 37 0 36 0 0 -295 0 -295 -35 0 c-40 0 -35 -11 -90 224 -18 81 -37 151 -41
155 -3 3 -4 -10 0 -29 4 -19 9 -106 13 -192 l6 -158 -37 0 -36 0 0 295 0 295
38 0 38 0 38 -166z m226 -93 c4 -223 7 -255 22 -264 12 -8 21 -7 32 2 14 12
16 48 16 268 l0 254 38 -3 37 -3 3 -292 2 -293 -40 0 c-37 0 -40 2 -40 28 l0
27 -23 -28 c-29 -37 -71 -34 -101 6 -20 27 -21 42 -24 293 l-3 265 38 -3 38
-3 5 -254z m376 225 c32 -32 34 -38 34 -100 l0 -66 -35 0 -34 0 -3 56 c-2 41
-8 60 -20 68 -28 17 -52 -4 -56 -49 -5 -58 3 -77 64 -145 31 -35 63 -78 70
-96 17 -40 18 -134 3 -166 -37 -80 -165 -79 -199 1 -6 15 -10 52 -8 82 3 53 4
54 33 54 29 0 30 -1 35 -58 5 -52 18 -76 42 -77 18 0 38 35 38 70 0 56 -12 80
-74 149 -65 74 -80 112 -74 194 4 52 9 64 36 88 47 43 103 40 148 -5z m271 0
c21 -25 23 -37 23 -132 l0 -104 -30 0 c-25 0 -30 4 -30 25 0 23 -4 25 -44 25
-39 0 -45 -3 -48 -22 -2 -18 -10 -23 -33 -23 l-30 0 0 103 0 104 34 30 c30 27
39 30 84 25 39 -3 56 -11 74 -31z m273 -1 c0 -32 -2 -35 -30 -35 l-30 0 0
-260 0 -260 -35 0 -35 0 0 260 0 260 -35 0 c-33 0 -35 2 -35 35 l0 35 100 0
100 0 0 -35z m236 4 c23 -21 24 -29 24 -129 l0 -107 -27 1 c-21 1 -29 7 -31
24 -3 19 -9 22 -47 22 -38 0 -44 -3 -47 -22 -2 -17 -10 -23 -28 -23 -25 0 -25
1 -28 90 -4 113 1 131 41 156 42 26 108 21 143 -12z m263 -3 l26 -26 3 -265 3
-265 -36 0 -35 0 0 130 0 130 -40 0 -40 0 0 -130 0 -130 -35 0 -36 0 3 264 c3
248 4 265 23 286 28 31 54 40 99 36 25 -3 49 -14 65 -30z m-845 -383 l44 -88
-5 88 -6 87 32 0 31 0 0 -131 0 -130 -36 3 c-34 3 -38 8 -74 77 -48 91 -62
107 -49 55 4 -22 9 -60 9 -86 l0 -48 -35 0 -35 0 0 130 0 130 40 0 40 0 44
-87z m580 66 c19 -15 26 -30 26 -54 0 -34 -5 -41 -45 -70 -20 -14 -19 -15 13
-40 43 -35 45 -75 4 -75 -22 0 -31 7 -43 33 -11 25 -21 33 -46 35 -32 3 -33 2
-33 -32 0 -33 -2 -36 -30 -36 l-30 0 0 130 0 130 79 0 c64 0 83 -4 105 -21z
m-1624 -204 l0 -35 -105 0 -105 0 0 28 c0 16 3 32 7 35 3 4 51 7 105 7 l98 0
0 -35z"/>
<path d="M1880 3474 c-78 -20 -169 -68 -227 -119 -63 -56 -136 -162 -165 -240
-26 -74 -36 -233 -18 -314 64 -297 371 -498 665 -436 161 34 277 110 364 240
218 326 52 772 -325 870 -73 19 -221 19 -294 -1z m348 -357 l192 -192 -198
-198 -197 -197 -194 194 c-139 139 -191 198 -185 207 15 25 369 378 379 379 6
0 97 -87 203 -193z"/>
<path d="M1856 3091 l-170 -170 166 -165 c91 -92 169 -166 174 -166 13 0 334
323 334 335 0 10 -320 335 -330 335 -3 0 -81 -76 -174 -169z"/>
<path d="M3120 3030 c0 -119 0 -120 23 -120 40 0 47 18 47 122 0 86 -2 98 -19
108 -48 25 -51 18 -51 -110z"/>
<path d="M3384 3137 c-3 -8 -4 -54 -2 -103 3 -82 5 -89 25 -92 13 -2 27 5 37
20 21 30 22 135 0 166 -17 24 -52 30 -60 9z"/>
<path d="M3655 3128 c-3 -13 -4 -113 -3 -223 l3 -200 30 0 30 0 3 209 c2 145
-1 213 -9 222 -18 22 -48 17 -54 -8z"/>
<path d="M5793 3153 c-8 -3 -13 -23 -13 -49 l0 -44 45 0 45 0 0 38 c0 54 -29
75 -77 55z"/>
<path d="M6296 3144 c-3 -9 -6 -31 -6 -50 0 -34 0 -34 45 -34 45 0 45 0 45 34
0 54 -8 66 -45 66 -21 0 -35 -6 -39 -16z"/>
<path d="M6566 3134 c-3 -9 -6 -51 -6 -95 l0 -79 40 0 40 0 0 79 c0 98 -5 111
-40 111 -16 0 -30 -7 -34 -16z"/>
<path d="M6295 2832 c-3 -3 -5 -20 -5 -39 0 -32 1 -33 39 -33 75 0 81 59 7 71
-19 3 -38 4 -41 1z"/>
</g>
</svg>
